<svg xmlns="http://www.w3.org/2000/svg" xmlns:xlink="http://www.w3.org/1999/xlink" x="0px" y="0px" viewBox="0 0 860.84 277.9" style="enable-background:new 0 0 860.84 277.9;" xml:space="preserve"><style type="text/css">	.st0{fill:#821517;}</style><g id="Layer_1">	<g>		<g id="XMLID_1_">			<path id="XMLID_25_" d="M28.56,210.73c2.97,0,4.57-2.4,4.57-7.44v-63.11H21.36c-5.49,0-11.32,3.2-14.52,7.89l-1.03,1.37H4.44    c0.34-3.31,0.69-7.66,1.03-10.86l0.11-1.6H73.5l0.11,1.6c0.34,3.2,0.69,7.55,1.03,10.86h-1.37l-1.03-1.37    c-3.2-4.69-9.03-7.89-14.52-7.89H45.94v63.11c0,5.04,1.6,7.44,4.57,7.44v1.71H28.56V210.73z"></path>			<path id="XMLID_23_" d="M157.81,212.44h-21.84v-1.71c2.97,0,4.57-2.4,4.57-7.44v-28.92H102.7v28.92c0,5.04,1.6,7.44,4.57,7.44    v1.71H85.44v-1.71c2.97,0,4.57-2.4,4.57-7.44v-57.16c0-5.03-1.6-7.43-4.57-7.43v-1.72h21.84v1.72c-2.97,0-4.57,2.4-4.57,7.43    v25.03h37.84v-25.03c0-5.03-1.6-7.43-4.57-7.43v-1.72h21.84v1.72c-2.97,0-4.57,2.4-4.57,7.43v57.16c0,5.04,1.6,7.44,4.57,7.44    V212.44z"></path>			<path id="XMLID_21_" d="M215.03,179.06l-0.46-0.8c-1.37-2.63-6.06-4.46-11.89-4.46h-12.57v35.44h17.04    c6.86,0,13.49-2.86,16.92-7.08l1.03-1.26h1.26c-0.57,2.97-1.26,6.97-1.72,9.95l-0.34,1.6h-51.45v-1.71c2.97,0,4.57-2.4,4.57-7.44    v-57.16c0-5.03-1.6-7.43-4.57-7.43v-1.72h51.34v11.55h-1.26l-0.8-1.26c-2.63-4.23-8.8-7.09-15.66-7.09h-16.35v30.41h12.57    c5.83,0,10.63-1.61,11.89-3.89l0.46-0.68h1.37v13.04H215.03z"></path>			<path id="XMLID_18_" d="M299.49,212.44h-21.84v-1.71c2.97,0,4.57-2.4,4.57-7.44v-57.16c0-5.03-1.6-7.43-4.57-7.43v-1.72h30.98    c16.24,0,27.09,8.35,27.09,20.81c0,12.58-11.89,21.04-29.84,21.04h-10.98v24.47c0,5.04,1.6,7.44,4.57,7.44V212.44z     M305.89,175.63c9.84,0,16.46-7.09,16.46-17.84c0-10.51-5.49-17.6-13.72-17.6h-13.72v35.44H305.89z"></path>			<path id="XMLID_16_" d="M370.3,138.7c-2.97,0-4.57,2.4-4.57,7.43v63.11h18.18c6.17,0,12.23-3.2,15.09-7.89l0.92-1.37    c0,0,0.69,0.23,1.72,0.45c0.11,0.11,0.34,0.11,0.45,0c-0.57,3.09-1.37,7.32-1.83,10.41l-0.34,1.6h-51.45v-1.71    c2.97,0,4.57-2.4,4.57-7.44v-57.16c0-5.03-1.6-7.43-4.57-7.43v-1.72h21.83V138.7z"></path>			<path id="XMLID_13_" d="M462.5,210.96h0.8c2.75,0,3.32-2.98,1.48-7.43c-2.28-5.72-4.8-11.66-7.09-17.5h-25.61l-5.72,16.47    c-1.6,5.03-0.69,8.35,2.4,8.35h0.92v1.71h-14.98v-1.71c3.09,0,5.37-2.29,7.2-6.86l24.81-68.71h3.2l29.04,68.48    c2.06,4.57,4.46,6.98,7.32,6.98v1.71h-23.55L462.5,210.96z M443.87,152.19l-10.63,30.64h23.21L443.87,152.19z"></path>			<path id="XMLID_11_" d="M497.54,136.98h15.89l40.82,57.05v-47.9c0-5.03-1.61-7.43-4.57-7.43v-1.72h12.92v1.72    c-2.98,0-4.57,2.4-4.57,7.43v68.6h-4.35c-15.89-22.18-31.78-44.36-47.67-66.54v55.11c0,5.04,1.61,7.44,4.57,7.44v1.71h-12.92    v-1.71c2.98,0,4.57-2.4,4.57-7.44v-57.16c0-5.03-1.6-7.43-4.57-7.43L497.54,136.98z"></path>			<path id="XMLID_9_" d="M576.94,136.98h15.89l40.81,57.05v-47.9c0-5.03-1.6-7.43-4.57-7.43v-1.72h12.92v1.72    c-2.97,0-4.57,2.4-4.57,7.43v68.6h-4.34c-15.89-22.18-31.78-44.36-47.67-66.54v55.11c0,5.04,1.6,7.44,4.57,7.44v1.71h-12.92    v-1.71c2.97,0,4.57-2.4,4.57-7.44v-57.16c0-5.03-1.61-7.43-4.57-7.43L576.94,136.98z"></path>			<path id="XMLID_7_" d="M698.75,179.06l-0.46-0.8c-1.37-2.63-6.06-4.46-11.89-4.46h-12.57v35.44h17.04    c6.86,0,13.49-2.86,16.92-7.08l1.03-1.26h1.26c-0.58,2.97-1.26,6.97-1.72,9.95l-0.34,1.6h-51.45v-1.71c2.97,0,4.57-2.4,4.57-7.44    v-57.16c0-5.03-1.61-7.43-4.57-7.43v-1.72h51.33v11.55h-1.26l-0.8-1.26c-2.63-4.23-8.8-7.09-15.66-7.09h-16.35v30.41h12.57    c5.83,0,10.63-1.61,11.89-3.89l0.46-0.68h1.37v13.04H698.75z"></path>			<path id="XMLID_4_" d="M726.81,136.98h30.87c16.12,0,26.87,7.77,26.87,19.44c0,9.26-6.86,16.12-17.95,18.87    c2.98,3.89,10.29,13.72,20.01,27.44c5.14,7.09,5.37,7.2,10.4,7.2v2.51h-4.45c-13.95,0-14.87-0.45-23.21-12.12    c-7.78-10.86-13.84-19.32-16.92-23.66h-8.23v26.63c0,5.04,1.6,7.44,4.57,7.44v1.71h-21.84v-1.71c2.97,0,4.57-2.4,4.57-7.44    v-57.16c0-5.03-1.61-7.43-4.57-7.43L726.81,136.98z M771.17,156.42c0-9.72-5.37-16.23-13.49-16.23h-13.6v33.27h10.86    C764.65,173.45,771.17,166.59,771.17,156.42z"></path>			<path id="XMLID_2_" d="M850.11,153.34c-0.69-1.14-1.6-2.75-2.29-3.89c-2.51-4.45-7.09-8.11-11.43-9.14    c0.11-0.23-4.69-0.69-4.69-0.69c-9.04,0-15.1,5.95-15.1,14.75c0,5.49,8.01,11.78,20.01,15.55c11.89,3.77,19.78,12.46,19.78,21.61    c0,12.92-9.83,21.61-24.69,21.61c-8.92,0-18.52-2.17-24.13-5.38v-11.43h1.48c0.46,0.8,1.03,1.71,1.49,2.51    c3.08,5.37,9.37,9.49,16.01,10.63c1.71,0.23,3.42,0.34,5.03,0.34c9.37,0,15.66-5.26,15.66-13.15c0-6.29-8.23-13.15-20.58-17.04    c-11.44-3.66-18.98-11.78-18.98-20.35c0-13.72,9.83-22.86,24.47-22.86c6.06,0,13.72,2.17,19.32,5.37v11.43L850.11,153.34z"></path>		</g>		<g>			<path d="M111.14,250.45h6.31c4.27,0,5.97,2.36,5.97,5.47c0,3.9-2.66,5.59-6.44,5.59h-4.9v7.99h-0.94V250.45z M117.05,260.58    c3.94,0,5.4-2.03,5.4-4.66c0-3.09-1.94-4.53-4.85-4.53h-5.51v9.19H117.05z"></path>			<path d="M140.24,269.51l-5.72-7.99h-4.71v7.99h-0.94v-19.06h6.33c4.19,0,5.98,2.36,5.98,5.47c0,3.67-2.36,5.38-5.45,5.58    l-0.01,0.04l5.72,7.96H140.24z M129.81,260.58h4.98c3.94,0,5.41-1.93,5.41-4.66c0-3.08-1.92-4.52-4.92-4.52h-5.46V260.58z"></path>			<path d="M147.31,250.45h11.17v0.93h-10.23v8.13h8.57v0.93h-8.57v8.13h10.79v0.93h-11.73V250.45z"></path>			<path d="M182.75,250.45v19.06h-0.94v-17.16h-0.03L174,265.46h-0.71l-7.77-13.11h-0.03v17.16h-0.94v-19.06h0.96l8.12,13.76h0.05    l8.11-13.76H182.75z"></path>			<path d="M189.64,250.45h0.94v19.06h-0.94V250.45z"></path>			<path d="M204.32,269.63c-4.17,0-7.06-2.9-7.06-7.74v-11.43h0.94v11.34c0,4.26,2.47,6.85,6.11,6.85c3.6,0,6.12-2.54,6.12-6.85    v-11.34h0.94v11.43C211.37,266.73,208.49,269.63,204.32,269.63L204.32,269.63z"></path>			<path d="M236.02,250.45v19.06h-0.94v-17.16h-0.03l-7.78,13.11h-0.71l-7.77-13.11h-0.03v17.16h-0.94v-19.06h0.96l8.12,13.76h0.05    l8.11-13.76H236.02z"></path>			<path d="M252.29,250.45h11.17v0.93h-10.23v8.13h8.57v0.93h-8.57v8.13h10.79v0.93h-11.73V250.45z"></path>			<path d="M283.47,250.45l-7.29,19.06h-0.93l-7.29-19.06h1.03l6.69,17.58h0.05l6.71-17.58H283.47z"></path>			<path d="M288.58,250.45h11.17v0.93h-10.23v8.13h8.57v0.93h-8.57v8.13h10.79v0.93h-11.73V250.45z"></path>			<path d="M320.66,250.45v19.06h-0.94l-12.87-17.34h-0.07v17.34h-0.94v-19.06h0.9l12.93,17.43h0.05v-17.43H320.66z"></path>			<path d="M331.84,251.38h-6.12v-0.93h13.32v0.93h-6.23v18.13h-0.97V251.38z"></path>			<path d="M353.6,250.45h5.13c6.02,0,9.89,3.91,9.89,9.56c0,5.63-3.8,9.5-9.81,9.5h-5.21V250.45z M358.75,268.58    c5.41,0,8.89-3.52,8.89-8.57c0-5.11-3.5-8.63-8.91-8.63h-4.19v17.19H358.75z"></path>			<path d="M374.58,250.45h11.17v0.93h-10.23v8.13h8.57v0.93h-8.57v8.13h10.79v0.93h-11.73V250.45z"></path>			<path d="M397.15,269.63c-2.33,0-4.75-0.88-6.56-2.91l0.72-0.76c1.35,1.79,3.63,2.71,5.81,2.71c2.84,0,5.03-1.51,5.03-3.9    c0-2.84-2.41-3.59-5.2-4.68c-2.75-1.09-5.59-2.02-5.59-5.11c0-2.66,2.41-4.67,5.52-4.65c1.86,0.01,3.89,0.72,5.63,2.05    l-0.65,0.84c-1.47-1.23-3.43-1.92-5.08-1.92c-2.21,0-4.43,1.24-4.44,3.62c-0.02,2.54,2.36,3.22,4.92,4.23    c3.09,1.22,5.87,2.23,5.87,5.57C403.14,267.59,400.6,269.63,397.15,269.63L397.15,269.63z"></path>			<path d="M409.02,250.45h0.94v19.06h-0.94V250.45z"></path>			<path d="M432.73,260.24v6.88c-1.8,1.64-4.38,2.5-7.31,2.5c-5.45,0-9.31-3.88-9.31-9.61c0-5.71,3.81-9.66,9.3-9.66    c2.5,0,4.92,0.71,6.98,2.71l-0.7,0.65c-1.82-1.79-3.94-2.41-6.3-2.41c-4.84,0-8.3,3.5-8.3,8.71c0,5.19,3.42,8.66,8.33,8.66    c2.48,0,4.74-0.59,6.37-2.02v-5.47h-6.85v-0.93H432.73z"></path>			<path d="M453.95,250.45v19.06h-0.94l-12.87-17.34h-0.06v17.34h-0.95v-19.06h0.9l12.92,17.43h0.05v-17.43H453.95z"></path>			<path d="M481.34,264.09h-9.63l-2.08,5.42h-1.02l7.35-19.06h1.09l7.43,19.06h-1.03L481.34,264.09z M480.99,263.16l-4.45-11.5    h-0.05l-4.41,11.5H480.99z"></path>			<path d="M504.37,250.45v19.06h-0.95l-12.87-17.34h-0.06v17.34h-0.94v-19.06h0.9l12.92,17.43h0.05v-17.43H504.37z"></path>			<path d="M511.12,250.45h5.14c6.02,0,9.89,3.91,9.89,9.56c0,5.63-3.8,9.5-9.81,9.5h-5.21V250.45z M516.27,268.58    c5.41,0,8.89-3.52,8.89-8.57c0-5.11-3.5-8.63-8.9-8.63h-4.19v17.19H516.27z"></path>			<path d="M540.88,260.08c0-5.41,3.28-9.74,9.3-9.74c2.62,0,5.24,1.07,7.25,3.61l-0.75,0.62c-1.79-2.28-4.12-3.27-6.51-3.27    c-5.36,0-8.32,3.8-8.32,8.79c0,5.53,3.71,8.55,8.32,8.55c2.96,0,4.98-1.3,6.51-3.22l0.75,0.6c-1.65,2.1-3.91,3.58-7.25,3.58    C545.09,269.59,540.88,266.24,540.88,260.08z"></path>			<path d="M561.96,259.96c0-5.33,3.78-9.63,9.39-9.63c5.17,0,9.34,3.85,9.34,9.63c0,5.79-4.16,9.66-9.34,9.66    C565.74,269.63,561.96,265.33,561.96,259.96z M579.7,259.96c0-5.21-3.76-8.67-8.34-8.67c-5.02,0-8.42,3.88-8.42,8.67    c0,4.83,3.4,8.71,8.42,8.71C575.95,268.67,579.7,265.17,579.7,259.96z"></path>			<path d="M601.48,250.45v19.06h-0.95l-12.87-17.34h-0.06v17.34h-0.94v-19.06h0.9l12.92,17.43h0.05v-17.43H601.48z"></path>			<path d="M613.54,269.63c-2.33,0-4.75-0.88-6.56-2.91l0.72-0.76c1.35,1.79,3.63,2.71,5.81,2.71c2.84,0,5.03-1.51,5.03-3.9    c0-2.84-2.41-3.59-5.2-4.68c-2.75-1.09-5.59-2.02-5.59-5.11c0-2.66,2.41-4.67,5.52-4.65c1.86,0.01,3.89,0.72,5.63,2.05    l-0.65,0.84c-1.47-1.23-3.43-1.92-5.08-1.92c-2.21,0-4.43,1.24-4.44,3.62c-0.02,2.54,2.36,3.22,4.92,4.23    c3.09,1.22,5.87,2.23,5.87,5.57C619.52,267.59,616.98,269.63,613.54,269.63L613.54,269.63z"></path>			<path d="M625.01,261.89v-11.43h0.94v11.34c0,4.26,2.48,6.85,6.12,6.85c3.6,0,6.11-2.54,6.11-6.85v-11.34h0.94v11.43    c0,4.84-2.88,7.74-7.06,7.74C627.9,269.63,625.01,266.73,625.01,261.89z"></path>			<path d="M645.58,250.45h0.94v18.13h10.35v0.93h-11.29V250.45z"></path>			<path d="M664.58,251.38h-6.12v-0.93h13.32v0.93h-6.24v18.13h-0.97V251.38z"></path>			<path d="M686.05,264.09h-9.63l-2.08,5.42h-1.02l7.34-19.06h1.09l7.43,19.06h-1.03L686.05,264.09z M685.69,263.16l-4.45-11.5    h-0.05l-4.42,11.5H685.69z"></path>			<path d="M709.07,250.45v19.06h-0.94l-12.87-17.34h-0.07v17.34h-0.94v-19.06h0.9l12.93,17.43h0.05v-17.43H709.07z"></path>			<path d="M715.06,260.08c0-5.41,3.27-9.74,9.3-9.74c2.62,0,5.24,1.07,7.26,3.61l-0.75,0.62c-1.79-2.28-4.12-3.27-6.51-3.27    c-5.36,0-8.32,3.8-8.32,8.79c0,5.53,3.71,8.55,8.32,8.55c2.96,0,4.98-1.3,6.51-3.22l0.75,0.6c-1.65,2.1-3.91,3.58-7.26,3.58    C719.27,269.59,715.06,266.24,715.06,260.08z"></path>			<path d="M749.2,250.45l-6.65,10.41v8.64h-0.94v-8.64l-6.62-10.41h1.13l5.93,9.36h0.05l5.97-9.36H749.2z"></path>		</g>		<g>			<path d="M280.56,46.57h13.72v1.14h-12.57v9.99h10.52v1.14h-10.52v9.99h13.26v1.14h-14.42V46.57z"></path>			<path d="M305.88,70.13c-2.86,0-5.84-1.08-8.06-3.57l0.88-0.93c1.66,2.2,4.46,3.33,7.14,3.33c3.49,0,6.18-1.85,6.18-4.8    c0-3.49-2.96-4.41-6.39-5.74c-3.38-1.34-6.87-2.48-6.87-6.27c0-3.27,2.96-5.74,6.79-5.71c2.28,0.02,4.78,0.89,6.92,2.53    l-0.8,1.03c-1.8-1.51-4.22-2.36-6.25-2.36c-2.72,0-5.44,1.53-5.45,4.44c-0.02,3.12,2.9,3.96,6.05,5.2    c3.8,1.5,7.21,2.74,7.21,6.84C313.23,67.62,310.11,70.13,305.88,70.13L305.88,70.13z"></path>			<path d="M322.65,47.71h-7.52v-1.14h16.36v1.14h-7.66v22.27h-1.19V47.71z"></path>			<path d="M331.69,68.99c0-0.73,0.53-1.24,1.25-1.24c0.68,0,1.22,0.51,1.22,1.24c0,0.67-0.55,1.21-1.22,1.21    C332.22,70.19,331.69,69.66,331.69,68.99z"></path>		</g>		<g>			<g>				<path d="M524.59,68.89v1.09h-13.72l-0.02-0.93l8.4-8.32c2.01-1.99,3.89-4.18,3.89-6.85c0-3.17-2.25-5.55-5.49-5.55     c-2.64,0-4.62,1.34-5.73,3.75l-0.93-0.56c1.21-2.59,3.4-4.28,6.68-4.28c3.41,0,6.6,2.43,6.6,6.58c0,2.56-1.39,4.86-3.97,7.43     l-7.63,7.59v0.05H524.59z"></path>				<path d="M527.82,58.7c0-6.55,2.88-11.5,8.19-11.5c4.6,0,8.16,3.94,8.16,11.5c0,6.44-2.83,11.42-8.16,11.42     C531.4,70.13,527.82,66.15,527.82,58.7z M543.05,58.7c0-6.44-2.73-10.41-7.03-10.41c-4.31,0-7.06,4.01-7.06,10.41     c0,6.36,2.77,10.33,7.06,10.33C540.31,69.03,543.05,65.04,543.05,58.7z"></path>				<path d="M552.39,48.74l-5.21,3.93l-0.6-0.85l5.87-4.47h1.01v22.64h-1.08V48.74z"></path>				<path d="M558.46,58.7c0-6.55,2.88-11.5,8.19-11.5c4.6,0,8.16,3.94,8.16,11.5c0,6.44-2.83,11.42-8.16,11.42     C562.03,70.13,558.46,66.15,558.46,58.7z M573.68,58.7c0-6.44-2.73-10.41-7.03-10.41c-4.31,0-7.06,4.01-7.06,10.41     c0,6.36,2.77,10.33,7.06,10.33C570.95,69.03,573.68,65.04,573.68,58.7z"></path>			</g>		</g>		<path class="st0" d="M412.06,36.16L393.73,54.5L376.3,37.07c-1.47-1.47-2.27-3.42-2.27-5.49c0-2.07,0.81-4.02,2.27-5.49l11.9-11.9   c1.47-1.47,3.42-2.27,5.49-2.27c2.07,0,4.02,0.81,5.49,2.27l42.15,42.15l6.34-6.34l-18.39-18.39l17.43-17.43   c1.47-1.47,3.42-2.27,5.49-2.27s4.02,0.81,5.49,2.27l11.97,11.97c3.03,3.03,3.03,7.95,0,10.98L428.51,78.3   c-1.47,1.47-3.42,2.27-5.49,2.27c-2.07,0-4.02-0.81-5.49-2.27L404.61,65.4l-6.34,6.34l12.92,12.91c3.16,3.16,7.36,4.9,11.83,4.9   c4.47,0,8.67-1.74,11.83-4.9l17.52-17.52l20.99,20.99l6.34-6.34l-20.99-20.99l17.29-17.29c6.52-6.52,6.52-17.14,0-23.66   L464.03,7.85c-3.16-3.16-7.36-4.9-11.83-4.9c-4.47,0-8.67,1.74-11.83,4.9l-17.43,17.43L405.52,7.85c-3.16-3.16-7.36-4.9-11.83-4.9   c-4.47,0-8.67,1.74-11.83,4.9l-11.9,11.9c-3.16,3.16-4.9,7.36-4.9,11.83c0,4.47,1.74,8.67,4.9,11.83l17.43,17.43l-20.17,20.17l0,0   l-0.82,0.82l6.34,6.34l20.99-20.99l0,0L418.4,42.5"></path>	</g></g><g id="Layer_2"></g></svg>